<svg width="169" height="221" viewBox="0 0 169 221" fill="none" xmlns="http://www.w3.org/2000/svg">
<g clip-path="url(#clip0_284_25)">
<path fill-rule="evenodd" clip-rule="evenodd" d="M103.58 126.428C105.872 128.718 108.136 131.207 110.384 133.886C117.055 141.84 126.437 155.705 138.527 175.481C146.137 187.933 152.234 197.299 156.821 203.577L168.391 219.272H131.18L121.654 204.825C121.343 204.302 120.718 203.411 119.779 202.155L113.691 193.518L104.009 177.499L93.5464 160.381C87.0933 151.378 81.1783 144.213 75.8037 138.884C73.9069 137.004 72.0768 135.31 70.3067 133.805C81.9855 131.796 93.5798 129.156 103.58 126.428ZM31.27 123.84V219.272H0.000488281V-1.52588e-05H54.7232C76.8199 -1.52588e-05 94.3581 5.49374 107.335 16.4812C120.313 27.4687 126.802 42.3271 126.802 61.0562C126.802 73.8229 123.622 84.864 117.264 94.175C110.907 103.488 101.785 110.446 89.9018 115.052C70.3912 120.599 56.8134 122.38 39.1285 123.43L31.27 123.84ZM40.6517 26.6829H31.27V95.9028H43.1533C58.9971 95.9028 69.8642 94.5411 75.7525 91.8222C81.6408 89.101 86.2283 84.9935 89.5105 79.4997C92.7948 74.006 94.4359 67.7532 94.4359 60.7437C94.4359 53.8369 92.6125 47.5842 88.9634 41.9855C85.3166 36.3891 80.1821 32.4379 73.5644 30.1363C66.9445 27.8348 55.9729 26.6829 40.6517 26.6829Z" fill="#F18805"/>
<path fill-rule="evenodd" clip-rule="evenodd" d="M103.58 126.428C105.872 128.718 108.136 131.207 110.384 133.886C117.055 141.84 126.437 155.705 138.527 175.481C146.137 187.933 152.234 197.299 156.821 203.577L168.391 219.272H131.18L121.654 204.825C121.343 204.302 120.718 203.411 119.779 202.155L113.691 193.518L104.009 177.499L93.5464 160.381C87.0933 151.378 81.1783 144.213 75.8037 138.884C73.9069 137.004 72.0768 135.31 70.3067 133.805C81.9855 131.796 93.5798 129.156 103.58 126.428ZM31.27 123.84V219.272H0.000488281V-1.52588e-05H54.7232C76.8199 -1.52588e-05 94.3581 5.49374 107.335 16.4812C120.313 27.4687 126.802 42.3271 126.802 61.0562C126.802 73.8229 123.622 84.864 117.264 94.175C110.907 103.488 101.785 110.446 89.9018 115.052C70.3912 120.599 56.8134 122.38 39.1285 123.43L31.27 123.84ZM40.6517 26.6829H31.27V95.9028H43.1533C58.9971 95.9028 69.8642 94.5411 75.7525 91.8222C81.6408 89.101 86.2283 84.9935 89.5105 79.4997C92.7948 74.006 94.4359 67.7532 94.4359 60.7437C94.4359 53.8369 92.6125 47.5842 88.9634 41.9855C85.3166 36.3891 80.1821 32.4379 73.5644 30.1363C66.9445 27.8348 55.9729 26.6829 40.6517 26.6829Z" fill="#F18805"/>
<path fill-rule="evenodd" clip-rule="evenodd" d="M103.579 126.428C105.872 128.718 108.136 131.207 110.384 133.886C117.055 141.84 126.437 155.705 138.527 175.481C146.136 187.933 152.234 197.299 156.821 203.577L168.391 219.272H131.18L121.653 204.825C121.342 204.302 120.717 203.412 119.779 202.155L113.69 193.518L104.009 177.499L93.5461 160.381C87.093 151.378 81.178 144.213 75.8033 138.884C73.9065 137.004 72.0764 135.31 70.3064 133.805C81.9852 131.796 93.5795 129.156 103.579 126.428Z" fill="#7B9E89"/>
<path fill-rule="evenodd" clip-rule="evenodd" d="M103.579 126.428C105.872 128.718 108.136 131.207 110.384 133.886C117.055 141.84 126.437 155.705 138.527 175.481C146.136 187.933 152.234 197.299 156.821 203.577L168.391 219.272H131.18L121.653 204.825C121.342 204.302 120.717 203.412 119.779 202.155L113.69 193.518L104.009 177.499L93.5461 160.381C87.093 151.378 81.178 144.213 75.8033 138.884C73.9065 137.004 72.0764 135.31 70.3064 133.805C81.9852 131.796 93.5795 129.156 103.579 126.428Z" fill="#7B9E89"/>
</g>
<defs>
<clipPath id="clip0_284_25">
<rect width="169" height="221" fill="white"/>
</clipPath>
</defs>
</svg>
